Coordinates
version=1
nRows=8
nColumns=63
inDegrees=yes

Units are S.I. units (second, meters, Newtons, ...)
If the header above contains a line with 'inDegrees', this indicates whether rotational values are in degrees (yes) or radians (no).

endheader
time	pelvis_tilt	pelvis_list	pelvis_rotation	pelvis_tx	pelvis_ty	pelvis_tz	hip_flexion_r	hip_adduction_r	hip_rotation_r	knee_angle_r	knee_angle_r_beta	ankle_angle_r	subtalar_angle_r	mtp_angle_r	hip_flexion_l	hip_adduction_l	hip_rotation_l	knee_angle_l	knee_angle_l_beta	ankle_angle_l	subtalar_angle_l	mtp_angle_l	L5_S1_Flex_Ext	L5_S1_Lat_Bending	L5_S1_axial_rotation	L4_L5_Flex_Ext	L4_L5_Lat_Bending	L4_L5_axial_rotation	L3_L4_Flex_Ext	L3_L4_Lat_Bending	L3_L4_axial_rotation	L2_L3_Flex_Ext	L2_L3_Lat_Bending	L2_L3_axial_rotation	L1_L2_Flex_Ext	L1_L2_Lat_Bending	L1_L2_axial_rotation	L1_T12_Flex_Ext	L1_T12_Lat_Bending	L1_T12_axial_rotation	Abs_r3	Abs_r2	Abs_r1	Abs_t1	Abs_t2	neck_flexion	neck_bending	neck_rotation	arm_flex_r	arm_add_r	arm_rot_r	elbow_flex_r	pro_sup_r	wrist_flex_r	wrist_dev_r	arm_flex_l	arm_add_l	arm_rot_l	elbow_flex_l	pro_sup_l	wrist_flex_l	wrist_dev_l
      0.00000000	     -1.32538036	     -2.75714475	    109.45016305	      0.39048262	      0.72068717	      1.03309859	      5.91794601	     -4.07690549	    -28.87643642	     16.16553717	      0.28214185	     27.56791060	      4.59737969	      0.00000000	      5.87152565	      1.45428800	      8.27069728	      8.67418855	      0.15139315	     25.75207420	     10.15858842	      0.00000000	      0.25852020	     -0.19060735	     -2.99441804	      0.48009787	     -0.25350777	     -3.18156917	      0.42472284	     -0.46344270	     -3.18156917	      0.29546274	     -0.46344270	     -2.62011578	      0.24006186	     -0.38868650	     -2.43296466	      0.14771844	     -0.29525078	     -2.24581353	      1.84658396	     -2.15618843	    -16.65405481	      0.00000000	      0.00000000	     28.09604186	      7.01217032	      3.93501971	      8.89585654	     -6.79573526	     49.85250248	     38.79499209	     65.05782432	     16.33873117	     19.03302210	      2.11706493	     -9.99607607	     41.14190537	     51.50562057	     74.24576467	      5.90755226	     12.69350723
      0.01694915	     -1.34597469	     -2.52138170	    109.81332875	      0.39046614	      0.72094349	      1.03358553	      5.84300021	     -4.01706602	    -28.44040978	     16.11018726	      0.28117581	     29.01778390	      4.17805449	      0.00000000	      5.77498687	      1.40654411	      7.97848846	      8.83110074	      0.15413178	     26.87470723	     11.03464683	      0.00000000	      0.22373942	     -0.19568679	     -2.71391478	      0.41550647	     -0.26026343	     -2.88353445	      0.36758149	     -0.47579286	     -2.88353445	      0.25571178	     -0.47579286	     -2.37467543	      0.20776442	     -0.39904450	     -2.20505576	      0.12784470	     -0.30311884	     -2.03543608	      1.59814827	     -2.21364811	    -15.09397982	      0.00000000	      0.00000000	     28.08482105	      5.88462466	      2.14537008	      7.68797926	     -6.33036632	     44.51501030	     38.86522833	     71.38648878	     17.62819142	     19.95243867	      3.79653602	    -10.36973229	     45.57569678	     50.51258487	     70.48947756	      5.22798068	     11.65085211
      0.03389831	     -1.33826171	     -2.38784189	    110.07893667	      0.39043086	      0.72111894	      1.03360147	      5.79532743	     -3.94223302	    -28.10690120	     16.01346519	      0.27948769	     29.88455678	      3.81728730	      0.00000000	      5.71848717	      1.35916383	      7.81964365	      8.95454176	      0.15628624	     27.44410208	     11.40488716	      0.00000000	      0.20705914	     -0.19718215	     -2.59754092	      0.38452954	     -0.26225226	     -2.75988723	      0.34017747	     -0.47942868	     -2.75988723	      0.23664790	     -0.47942868	     -2.27284830	      0.19227512	     -0.40209384	     -2.11050200	      0.11831360	     -0.30543515	     -1.94815569	      1.47900277	     -2.23056390	    -14.44674333	      0.00000000	      0.00000000	     28.08183135	      5.43253485	      1.32343877	      7.19941951	     -6.08125619	     42.00045424	     39.04206662	     71.58917513	     17.54178366	     21.38615278	      4.66089753	    -10.46414538	     47.48597707	     50.07503070	     69.52243508	      5.21056332	     11.22514756
      0.05084746	     -1.29448175	     -2.37009744	    110.18052928	      0.39050189	      0.72121078	      1.03348225	      5.84180098	     -3.88403057	    -28.06787003	     15.92383591	      0.27792337	     30.35206546	      3.78071567	      0.00000000	      5.69412780	      1.30573106	      7.75581059	      8.95069480	      0.15621909	     27.46067372	     11.35540141	      0.00000000	      0.20762541	     -0.19475256	     -2.60513145	      0.38558114	     -0.25902091	     -2.76795216	      0.34110778	     -0.47352138	     -2.76795216	      0.23729508	     -0.47352138	     -2.27949002	      0.19280095	     -0.39713943	     -2.11666930	      0.11863716	     -0.30167172	     -1.95384859	      1.48304752	     -2.20307994	    -14.48895957	      0.00000000	      0.00000000	     28.06772915	      5.44483772	      1.31341211	      7.46611632	     -6.06823188	     41.80560049	     39.06919049	     71.50933865	     17.50535488	     21.35756656	      4.82592333	    -10.44099813	     47.45631555	     50.13912231	     69.54228576	      5.20511597	     11.21405619
      0.06779661	     -1.21873274	     -2.27312907	    110.56807656	      0.39029867	      0.72136266	      1.03271610	      5.66047907	     -3.79473821	    -28.67483240	     15.82608186	      0.27621724	     30.67759094	      4.24599332	      0.00000000	      5.64557447	      1.20128247	      8.07666655	      9.12450476	      0.15925265	     27.32703660	     11.12628531	      0.00000000	      0.20587211	     -0.18929177	     -2.69663327	      0.38232509	     -0.25175806	     -2.86517285	      0.33822729	     -0.46024401	     -2.86517285	      0.23529123	     -0.46024401	     -2.35955411	      0.19117284	     -0.38600378	     -2.19101453	      0.11763532	     -0.29321295	     -2.02247495	      1.47052389	     -2.14130637	    -14.99786526	      0.00000000	      0.00000000	     28.09847410	      5.59877975	      1.46565891	      7.27215375	     -5.85899147	     40.70923750	     39.40407385	     66.73457802	     16.24488964	     23.58482735	      4.81920928	    -10.36566840	     46.75362143	     50.44561236	     71.79527508	      5.46111631	     11.45018948
      0.08474576	     -1.17086558	     -2.28051936	    110.56046104	      0.39053632	      0.72143538	      1.03215357	      5.66239318	     -3.71765678	    -28.68394430	     15.79365274	      0.27565124	     30.66559608	      4.27963199	      0.00000000	      5.62614023	      1.11793095	      7.86225912	      9.16018890	      0.15987546	     26.94111050	     10.97958728	      0.00000000	      0.21447281	     -0.18862207	     -2.75671441	      0.39829746	     -0.25086735	     -2.92900906	      0.35235738	     -0.45861570	     -2.92900906	      0.24512098	     -0.45861570	     -2.41212511	      0.19915945	     -0.38463812	     -2.23983046	      0.12254976	     -0.29217559	     -2.06753580	      1.53195785	     -2.13373058	    -15.33201851	      0.00000000	      0.00000000	     28.11776456	      5.62298339	      1.49591620	      7.51666203	     -5.82556982	     40.48748226	     39.63700979	     66.46856395	     16.27368756	     23.48730702	      5.04613802	    -10.39952664	     46.59696592	     50.70930155	     71.90145736	      5.43003222	     11.44265495
      0.10169492	     -1.09608900	     -2.27142321	    111.13911110	      0.38986289	      0.72148369	      1.03122480	      5.39672714	     -3.71603517	    -30.22714384	     15.63318593	      0.27285057	     30.71806869	      5.40543756	      0.00000000	      5.58303280	      1.11888892	      9.09064893	      9.18018150	      0.16022439	     26.46445443	      9.84179013	      0.00000000	      0.23482486	     -0.18418589	     -3.07372193	      0.43609325	     -0.24496724	     -3.26582955	      0.38579376	     -0.44782958	     -3.26582955	      0.26838133	     -0.44782958	     -2.68950669	      0.21805837	     -0.37559187	     -2.49739907	      0.13417893	     -0.28530395	     -2.30529145	      1.67733050	     -2.08354765	    -17.09511927	      0.00000000	      0.00000000	     28.13148682	      6.42450065	      2.77351215	      8.67935544	     -6.15444661	     44.52020058	     39.61631893	     57.74025163	     13.99087152	     24.48372241	      3.72963024	     -9.96809033	     42.61646819	     51.62239677	     77.66169156	      5.89491946	     12.11212525
      0.11864407	     -1.08514045	     -2.27481237	    111.14380455	      0.39017839	      0.72154570	      1.03049260	      5.33249647	     -3.65937255	    -30.36917635	     15.62975552	      0.27279070	     30.55080971	      5.35042757	      0.00000000	      5.53682194	      1.07399237	      8.94702596	      9.17594351	      0.16015043	     26.19613705	      9.73875512	      0.00000000	      0.25052500	     -0.19073809	     -3.11545865	      0.46524998	     -0.25368166	     -3.31017481	      0.41158753	     -0.46376060	     -3.31017481	      0.28632503	     -0.46376060	     -2.72602632	      0.23263752	     -0.38895312	     -2.53131015	      0.14314999	     -0.29545331	     -2.33659399	      1.78947505	     -2.15766746	    -17.32724636	      0.00000000	      0.00000000	     28.17000697	      6.37972355	      2.78716360	      8.82557804	     -6.11563211	     44.46436411	     39.79933555	     57.44620231	     14.05323358	     24.45970058	      3.86826478	     -9.94868644	     42.41340302	     51.90669287	     77.79356750	      5.74729368	     12.07121009
